<svg width="28" height="28" viewBox="0 0 28 28" fill="none" xmlns="http://www.w3.org/2000/svg">
<path d="M10.6652 25.1832C8.71042 24.6012 6.97039 23.5207 5.5926 22.089C6.10659 21.4799 6.41634 20.6928 6.41634 19.8334C6.41634 17.9004 4.84934 16.3334 2.91634 16.3334C2.79941 16.3334 2.68382 16.3391 2.56984 16.3503C2.41455 15.5911 2.33301 14.8051 2.33301 14C2.33301 12.7805 2.52012 11.6047 2.86722 10.4997C2.88356 10.4999 2.89994 10.5 2.91634 10.5C4.84934 10.5 6.41634 8.93301 6.41634 7.00002C6.41634 6.4451 6.28719 5.92039 6.05736 5.45419C7.40655 4.19967 9.0533 3.26081 10.8801 2.75513C11.4589 3.88974 12.6386 4.6667 13.9997 4.6667C15.3608 4.6667 16.5404 3.88974 17.1193 2.75513C18.9461 3.26081 20.5928 4.19967 21.942 5.45419C21.7122 5.92039 21.583 6.4451 21.583 7.00002C21.583 8.93301 23.15 10.5 25.083 10.5C25.0994 10.5 25.1158 10.4999 25.1321 10.4997C25.4792 11.6047 25.6663 12.7805 25.6663 14C25.6663 14.8051 25.5848 15.5911 25.4295 16.3503C25.3155 16.3391 25.2 16.3334 25.083 16.3334C23.15 16.3334 21.583 17.9004 21.583 19.8334C21.583 20.6928 21.8928 21.4799 22.4067 22.089C21.029 23.5207 19.2889 24.6012 17.3341 25.1832C16.883 23.772 15.5607 22.75 13.9997 22.75C12.4387 22.75 11.1164 23.772 10.6652 25.1832Z" stroke="white" stroke-width="2" stroke-linejoin="round"/>
<path d="M14.0003 18.0833C16.2555 18.0833 18.0837 16.2551 18.0837 14C18.0837 11.7448 16.2555 9.91663 14.0003 9.91663C11.7452 9.91663 9.91699 11.7448 9.91699 14C9.91699 16.2551 11.7452 18.0833 14.0003 18.0833Z" stroke="white" stroke-width="2" stroke-linejoin="round"/>
</svg>
