<svg width="266" height="112" viewBox="0 0 266 112" fill="none" xmlns="http://www.w3.org/2000/svg">
<path d="M53.1505 58.5537H0V72.2211H14.6033V111.942H34.7458V72.2211H49.3492L53.1505 58.5537Z" fill="#FDFDFD"/>
<path d="M72.1446 103.471H88.7622L91.1121 111.942H112.346L96.0638 58.5537H64.9268L48.645 111.942H69.8785L72.1446 103.471ZM81.0408 74.9262L85.0694 89.8749H75.8374L79.9498 74.9262H81.0408Z" fill="#FDFDFD"/>
<path d="M144.443 111.942H123.09L116.244 90.2901V85.2479V58.5537H144.443C150.094 58.5537 154.822 59.052 158.627 60.0486C162.432 60.9977 165.481 62.54 167.775 64.6756C170.069 66.8111 171.692 69.5636 172.643 72.933C173.65 76.3024 174.153 80.3836 174.153 85.1767C174.153 89.9698 173.65 94.0748 172.643 97.4916C171.692 100.861 170.069 103.614 167.775 105.749C165.481 107.885 162.432 109.451 158.627 110.447C154.822 111.444 150.094 111.942 144.443 111.942ZM144.779 72.2211H136.386V98.2747H144.779C147.577 98.2747 149.563 98.0137 150.738 97.4916C151.969 96.9222 152.584 95.6646 152.584 93.7189V76.777C152.584 74.8312 151.969 73.5974 150.738 73.0754C149.563 72.5059 147.577 72.2211 144.779 72.2211Z" fill="#FDFDFD"/>
<path d="M198.527 103.471H215.145L217.495 111.942H238.307L232.14 90.2901L222.446 58.5537H191.309L175.027 111.942H196.261L198.527 103.471ZM207.423 74.9262L211.452 89.8749H202.22L206.332 74.9262H207.423Z" fill="#FDFDFD"/>
<path d="M204.409 18.738C204.145 17.4941 205.094 16.3231 206.366 16.3231L220.48 16.3231C221.697 16.3231 222.632 17.4006 222.46 18.6053L220.083 35.2833C219.965 36.1077 219.349 36.773 218.536 36.9536L210.704 38.6929C209.619 38.934 208.545 38.2432 208.314 37.1553L204.409 18.738Z" fill="#FEB700"/>
<path d="M252.002 36.2115C252.86 35.3317 254.301 35.4265 255.037 36.4111L264.201 48.6824C264.977 49.7208 264.575 51.2113 263.383 51.7192L249.189 57.764C248.343 58.1246 247.359 57.8609 246.807 57.125L241.223 49.6902C240.63 48.9016 240.701 47.7988 241.39 47.0927L252.002 36.2115Z" fill="#FEB700"/>
<path d="M235.825 8.84136C236.095 8.0213 236.861 7.4672 237.724 7.4672L257.973 7.46727C259.571 7.46727 260.524 9.25039 259.635 10.5793L237.151 44.19C236.638 44.9568 235.668 45.2732 234.801 44.9561L226.914 42.0689C225.901 41.6979 225.364 40.5899 225.702 39.565L235.825 8.84136Z" fill="#FFB800"/>
</svg>
