<svg width="24" height="25" viewBox="0 0 24 25" fill="none" xmlns="http://www.w3.org/2000/svg">
<path fill-rule="evenodd" clip-rule="evenodd" d="M12 22.3C16.216 22.3 19.7803 18.9596 20.9468 15.1249C21.209 14.2628 23 14.2627 23 12.4C23 10.5372 21.1919 10.4301 20.8993 9.524C19.6862 5.7673 16.1604 2.5 12 2.5C7.83725 2.5 4.30986 5.77035 3.09862 9.5303C2.80733 10.4346 1 10.5045 1 12.4C1 14.2954 2.79613 14.2955 3.06745 15.1711C4.24835 18.982 7.8009 22.3 12 22.3Z" stroke="white" stroke-width="2"/>
<path d="M20.8993 9.524C19.6862 5.7673 16.1604 2.5 12 2.5" stroke="white" stroke-width="2" stroke-linecap="round"/>
<path d="M9.5501 11.2999C9.5501 11.7131 9.438 12.0758 9.2699 12.328C9.10065 12.5819 8.89425 12.6999 8.7001 12.6999C8.50595 12.6999 8.29955 12.5819 8.1303 12.328C7.9622 12.0758 7.8501 11.7131 7.8501 11.2999C7.8501 10.8868 7.9622 10.524 8.1303 10.2719C8.29955 10.018 8.50595 9.8999 8.7001 9.8999C8.89425 9.8999 9.10065 10.018 9.2699 10.2719C9.438 10.524 9.5501 10.8868 9.5501 11.2999Z" fill="white" stroke="white" stroke-width="0.5"/>
<path d="M16.1497 11.2999C16.1497 11.7131 16.0376 12.0758 15.8695 12.328C15.7003 12.5819 15.4939 12.6999 15.2997 12.6999C15.1056 12.6999 14.8992 12.5819 14.7299 12.328C14.5618 12.0758 14.4497 11.7131 14.4497 11.2999C14.4497 10.8868 14.5618 10.524 14.7299 10.2719C14.8992 10.018 15.1056 9.8999 15.2997 9.8999C15.4939 9.8999 15.7003 10.018 15.8695 10.2719C16.0376 10.524 16.1497 10.8868 16.1497 11.2999Z" fill="white" stroke="white" stroke-width="0.5"/>
<path fill-rule="evenodd" clip-rule="evenodd" d="M9.24902 16.3755C10.2145 17.0253 11.133 17.3502 12.0047 17.3502C12.8755 17.3502 13.7388 17.026 14.5947 16.3776" fill="white"/>
<path d="M9.24902 16.3755C10.2145 17.0253 11.133 17.3502 12.0047 17.3502C12.8755 17.3502 13.7388 17.026 14.5947 16.3776" stroke="white" stroke-width="2" stroke-linecap="round"/>
<path d="M15.8641 3.6001C15.9982 4.56684 15.7033 5.27325 14.9796 5.71935C14.2559 6.16545 13.0801 6.3745 11.4521 6.3465" stroke="white" stroke-width="2" stroke-linecap="round"/>
</svg>
