<svg width="36" height="36" viewBox="0 0 36 36" fill="none" xmlns="http://www.w3.org/2000/svg">
<path d="M19.5 22.2001C19.5 21.5373 18.9627 21.0001 18.3 21.0001H16.5C14.0394 20.9991 11.6253 21.6708 9.51881 22.9424C7.76033 24.0039 6.27199 25.4499 5.16188 27.1655C4.97018 27.4618 4.49982 27.3529 4.5 27.0001C4.5 19.1194 10.5767 12.6586 18.3002 12.0473C18.9608 11.9951 19.5 11.4628 19.5 10.8001V6.99681C19.5 5.9906 20.6639 5.43119 21.4496 6.05977L33.3287 15.563C33.9292 16.0434 33.9292 16.9567 33.3287 17.4371L21.4496 26.9403C20.6639 27.5689 19.5 27.0095 19.5 26.0033V22.2001Z" fill="white"/>
</svg>
