<svg width="25" height="24" viewBox="0 0 25 24" fill="none" xmlns="http://www.w3.org/2000/svg">
<path d="M3.02212 7.91628C2.89025 7.29434 3.36461 6.70885 4.00037 6.70885L7.39106 6.70884C7.99948 6.70884 8.46691 7.24761 8.38106 7.84995L7.75499 12.2425C7.69624 12.6547 7.38824 12.9873 6.98179 13.0776L5.231 13.4664C4.68819 13.587 4.15129 13.2416 4.03595 12.6976L3.02212 7.91628Z" fill="#FEB700"/>
<path d="M17.1636 13.1176C17.5926 12.6777 18.3131 12.7251 18.6807 13.2174L20.9166 16.2111C21.3044 16.7303 21.1034 17.4756 20.5072 17.7295L16.9002 19.2657C16.4769 19.446 15.9851 19.3142 15.7088 18.9462L14.3833 17.1813C14.0871 16.787 14.1226 16.2356 14.4669 15.8826L17.1636 13.1176Z" fill="#FEB700"/>
<path d="M12.4444 4.68708C12.5795 4.27705 12.9624 4 13.3941 4L18.5801 4.00002C19.3795 4.00002 19.8558 4.89158 19.4113 5.55603L13.1077 14.9793C12.8512 15.3627 12.3658 15.5209 11.9327 15.3623L10.1596 14.7132C9.65288 14.5278 9.38471 13.9737 9.55355 13.4613L12.4444 4.68708Z" fill="#FFB800"/>
</svg>
