<svg width="19" height="20" viewBox="0 0 19 20" fill="none" xmlns="http://www.w3.org/2000/svg">
    <path d="M.327 6.7a1 1 0 0 1 .978-1.207h3.39a1 1 0 0 1 .99 1.141l-.625 4.393a1 1 0 0 1-.774.835l-1.75.389a1 1 0 0 1-1.195-.77L.327 6.702zM14.468 11.902a1 1 0 0 1 1.517.1l2.236 2.993a1 1 0 0 1-.41 1.519l-3.606 1.536a1 1 0 0 1-1.192-.32l-1.325-1.765a1 1 0 0 1 .084-1.298l2.696-2.765z" fill="#FEB700"/>
    <path d="M9.749 3.471a1 1 0 0 1 .95-.687h5.186a1 1 0 0 1 .831 1.556l-6.304 9.423a1 1 0 0 1-1.175.383l-1.773-.649a1 1 0 0 1-.606-1.252L9.75 3.471z" fill="#FFB800"/>
</svg>
